<svg id="a4326b80-8223-41f1-b517-13b02efa2825" data-name="Layer 1" xmlns="http://www.w3.org/2000/svg" width="1080" height="1080" viewBox="0 0 1080 1080"><defs><style>.a52aa14c-6297-4fe0-83cb-be79aa1a12cd{fill:#00e9c2;}</style></defs><path id="eb8e849a-1180-400d-9df6-020310862d57" data-name="Bracket_Right" class="a52aa14c-6297-4fe0-83cb-be79aa1a12cd" d="M349.34,202.71,455.1,308.47a27.66,27.66,0,0,0,19.55,8.09H735.79a27.65,27.65,0,0,1,27.65,27.65V605.35a27.66,27.66,0,0,0,8.09,19.55L877.29,730.66a27.64,27.64,0,0,0,39.1,0L1022.15,624.9a27.64,27.64,0,0,0,8.1-19.55V77.4a27.65,27.65,0,0,0-27.65-27.65H474.65a27.64,27.64,0,0,0-19.55,8.1L349.34,163.61A27.64,27.64,0,0,0,349.34,202.71Z"/><path id="b8365db7-8e59-4bb5-82fb-42dc843e3c91" data-name="Bracket_Left" class="a52aa14c-6297-4fe0-83cb-be79aa1a12cd" d="M730.66,877.29,624.9,771.53a27.66,27.66,0,0,0-19.55-8.09H344.21a27.65,27.65,0,0,1-27.65-27.65V474.65a27.66,27.66,0,0,0-8.09-19.55L202.71,349.34a27.64,27.64,0,0,0-39.1,0L57.85,455.1a27.64,27.64,0,0,0-8.1,19.55v528a27.65,27.65,0,0,0,27.65,27.65h528a27.64,27.64,0,0,0,19.55-8.1L730.66,916.39A27.64,27.64,0,0,0,730.66,877.29Z"/></svg>